<svg xmlns="http://www.w3.org/2000/svg" width="220" height="45" viewBox="0 0 220 45">
    <g fill="none" fill-rule="nonzero">
        <path fill="#000" d="M10.581 18.378c0-2.993-.082-3.45-1.377-3.592l-1.197-.045c-2.492-.067-4.325-.538-5.44-1.414C.868 11.995.322 10.29 1.07 8.523a4.228 4.228 0 0 1 2.851-2.417c3.225-.92 6.316 0 9.301.935 1.393.458 2.813.83 4.25 1.115l.233.045c2.544.457 8.508 1.497 10.476-1.414.464-.696.12-1.122-.284-1.616a2.47 2.47 0 0 1-.517-.853c-.232-.846.36-1.534.928-2.208.569-.673 1.085-1.272.943-2.02l.247-.083c1.923 3.645.853 5.53.449 6.234l-.12.232c0 .217-.097 1.017-1.354 2.05-2.245 1.87-5.044 1.691-7.73 1.497l-.846-.053a28.316 28.316 0 0 1-5.777-1.085l-1.893-.546c-2.581-.748-5.02-1.497-7.67-.838a2.634 2.634 0 0 0-2.103 1.916c-.19.724-.02 1.495.457 2.072 1.107 1.28 2.424 1.542 4.939 1.647h3.315c1.347-.038 2.708 0 4.287 0h1.617a21.61 21.61 0 0 1 7.326 1.04 9.646 9.646 0 0 1 6.427 9.189 10.147 10.147 0 0 1-5.68 9.384c-2.02 1.01-4.556 1.496-7.969 1.496-.785 0-1.586-.052-2.357-.105a28.005 28.005 0 0 0-1.796-.082c-1.496 0-3.075 0-4.871.097h-.015a.905.905 0 0 1-.24-.748.748.748 0 0 1 .247-.591l.966-.157c1.317-.232 1.496-.374 1.496-3.218l-.022-11.06zm4.752 10.26c0 1.735.067 2.244.59 2.865a3.218 3.218 0 0 0 2.5.86c5.238 0 7.116-4.489 7.116-8.747 0-5.462-2.776-8.119-8.493-8.119-.928 0-1.4.195-1.496.352a4.13 4.13 0 0 0-.195 1.736l-.022 11.052z"/>
        <path fill="#FFF" d="M7.835 13.41h-.202c-.105.396-.202.688-.322 1.055h.86c.113-.35.189-.712.225-1.078l-.561.023zM10.835 27.507v.913c.636.868.554 2.11 1.108 3.046l-.202.052a2.993 2.993 0 0 0-.936-.748 6.27 6.27 0 0 1-.09.808c.234.317.596.512.988.532a4.415 4.415 0 0 1 1.168 1.69h.89c-.486-.748-.636-1.623-1.347-2.29-.104-1.6-.104-2.992-1.579-4.003zM8.276 33.052H8.21a.516.516 0 0 0-.12.367v.045a.673.673 0 0 0 .12.426l1.878-.052a2.769 2.769 0 0 0-1.19-.643 1.594 1.594 0 0 1-.62-.143zM16.8 32.379a2.627 2.627 0 0 1-1.078-.703 2.799 2.799 0 0 1-.636-1.916 16.41 16.41 0 0 1-1.497-3.899c-.471-.973-.36-2.2-1.025-3.083.142-1.354-.232-2.507-.322-3.741-.164-.127-.052-.344-.127-.576-.127-1.37-.397-3.375.524-4.722.052-.135.075-.232.12-.36h-1.033a4.43 4.43 0 0 0-.374.921c-.36 1.93-.614 3.405.321 5.178.397 1.497.232 3.225.629 4.722.651.576.292 1.856.83 2.634.412.127.255.748.382 1.085.232.808.906 1.586.651 2.432.92.905 1.572 2.095 2.492 2.993.032.224.1.442.202.644h1.048a5.44 5.44 0 0 0-.202-.584c-.292-.36-.591-.658-.906-1.025zM16.522 13.716a7.483 7.483 0 0 0-.748 1.691c.321-.094.653-.145.988-.15.135-.373.202-.44.322-.792.232-.217.374-.322.27-.592.134.045.336-.336.396-.5h-1.018c.015.104-.232.134-.21.343zM20.855 32.244c.12.524.217.936.337 1.497.324-.055.638-.115.943-.18a17.31 17.31 0 0 1-.277-1.706 6.443 6.443 0 0 1-1.003.39zM29.528 25.218l-.382-1.856c-.314-.097-.284-.344-.314-.659.19-.34.338-.701.441-1.077 0-.075.382-.591.45-.696.124-.27.214-.554.269-.846a9.346 9.346 0 0 0-.846-1.78c.019.387-.004.776-.067 1.16-.322.538-.217.837-.157 1.451a.509.509 0 0 1-.367.554l-.18-.053c-.202-.845 0-1.646-.628-2.521l-.135-2.477a9.264 9.264 0 0 0-.943-.749c-.052 2.028.614 4.19.434 6.324.614 1.803.92 3.48 1.931 5.193.153.394.276.799.367 1.212.266-.513.487-1.05.658-1.601a3.869 3.869 0 0 1-.531-1.58zM27.545 28.854c-.561-.748-.472-1.623-.83-2.29.164-.396-.36-.576-.128-.897a12.654 12.654 0 0 1-.748-3.323 1.497 1.497 0 0 1-.135-.21c.17 1.485.09 2.988-.24 4.446.405 1.332.749 2.619 1.116 3.958 0 .052 0 .142-.075.18.148.239.211.52.18.8a9.653 9.653 0 0 0 1.107-.965 10.476 10.476 0 0 0-.307-1.497l.06-.202zM25.24 19.95c0-.262 0-.532-.067-.801a14.218 14.218 0 0 1-.202-4.49c-.225-.097-.45-.194-.681-.277l-.21-.067a18.872 18.872 0 0 0-.307 3.225 6.622 6.622 0 0 1 1.467 2.41zM22.007 16.283c.143-.412-.067-.681.292-1.003a4.7 4.7 0 0 1 .195-1.377l-.853-.164a22.624 22.624 0 0 0-.382 2.245c.255.087.504.186.748.299zM24.372 29.393a7.019 7.019 0 0 1-1.033 1.34c.15.83.3 1.496.434 2.342.372-.13.737-.28 1.093-.45a16.066 16.066 0 0 0-.33-2.356c.007-.3-.05-.598-.164-.876zM18.812 14.09a3.397 3.397 0 0 1-.336 1.228c.329.03.646.07.95.12a9.414 9.414 0 0 1 .471-1.856l.038-.105-.749-.06a.86.86 0 0 0-.321.673h-.053zM19.867 32.499a8.134 8.134 0 0 1-.972.112c.07.405.11.816.12 1.227a.614.614 0 0 1 .097.105l.86-.067c-.127-.51.06-.973-.105-1.377z"/>
        <path fill="#FFF" d="M13.163 18.056c.416.97.63 2.014.628 3.068-.029 1.215.38 2.4 1.153 3.338l.12.127v-1.691c-.158-.748-.12-1.579-.697-2.148h.075c0-.935.075-2.469-.322-3.39 0-.09-.09-.127-.127-.201a6.735 6.735 0 0 1 1.018-3.802h-.935a6.69 6.69 0 0 0-.98 3.173c.077.505.1 1.017.067 1.526zM12.212 26.901c.217 0 .352-.351.352-.538-.397-.749-1.115-1.302-1.37-1.968a7.483 7.483 0 0 0-.351-3.428v4.206c.396.756 1.137.748 1.37 1.728zM9.444 13.41a.554.554 0 0 0-.217.426 3.36 3.36 0 0 1 0 .696c.307.018.608.1.883.24.054-.467.15-.928.284-1.377l-.95.015zM6.33 13.29c-.112.374-.157.673-.291 1.017l.793.09c.083-.346.136-.7.157-1.055l-.658-.052z"/>
        <path fill="#709F40" d="M90.125 19.785c-2.402 0-4.796-.8-4.796-2.522 0-1.72 2.095-2.82 4.49-2.82 2.394 0 4.302.747 4.49 2.768.134 1.392-1.79 2.574-4.184 2.574zM84.034 25.21c-.748-2.394 1.893-8.022-.696-9.144a2.993 2.993 0 0 0-2.567.217c-3.068 1.497-7.026 5.702-7.026 8.755 0 2.874 5.418 7.281 6.398 7.76 2.125 1.19 4.018.591 4.744-.651s-.194-4.924-.853-6.937zM90.305 27.328c2.551 0 4.624-1.19 4.624-2.657 0-1.466-2.132-2.342-4.684-2.342s-4.116 1.025-4.116 2.492 1.624 2.507 4.176 2.507zM90.297 34.601c2.574 0 4.61-1.032 4.61-2.694 0-1.66-1.834-2.551-4.408-2.551-2.574 0-4.64 1.062-4.64 2.724 0 1.66 1.872 2.521 4.438 2.521z"/>
        <path fill="#000" d="M216.528 8.299l-.397-1.422.098-1.257.98-1.16.337-.397 1.429-.815L218.57.95l-.367.18v.83l.412 1.183s-.823.591-1.13.411c-.307-.18-.487-2.035-.487-2.035l-.366.18.449 2.245-.592.748-.912 1.272.18 2.245-2.403 4.13-.06 1.939 1.99 3.606c.135.584.09 9.377.09 9.377-3.83-3.974-6.083-8.067-9.593-12.37-1.067.142-2.141.22-3.217.232-1.228 0-2.664-.12-4.064-.232v.412l2.133.905c.46.16.762.599.748 1.085.112 1.147.162 2.298.15 3.45v7.079c0 2.02-.06 4.707-.15 5.238l-3.367 1.684-1.28 1.414.3 1.945 2.993 1.796 2.282-.748 1.205-1.916-.262-1.07h-1.549l-.65.382 1.413.479-1.1 1.422-1.945-.068-.786-1.451 1.25-1.692 2.589-.748h1.332l1.212.367c.724.169 1.46.284 2.2.344v-.404l-1.43-.472-1.922-1.496c-.098-.651-.165-3.352-.165-5.021V19.68c4.355 4.85 7.483 9.324 11.726 14.218h2.192c-.09-4.49-.12-15.393-.09-15.76l1.542-3.142.06-3.218-2.604-3.48z"/>
        <path fill="#FFF" d="M217.082 15.475l.434.037.628-1.885-1.152-.225zM216.244 15.505l-.434.075-.786-1.826 1.137-.322zM213.707 29.775l.157-3.51-2.933.113.381-2.964-2.641-.434-.045-2.866.022-.531-2.559.187.479-3.12-3.839.351-.277.27 3.413-.015-.502 3.135 2.657.038.097 2.91.262.038 2.215.539-.247 2.85 2.866.09.18 3.188z"/>
        <path fill="#D21385" d="M112.844 35.215l-1.617-1.25a8.067 8.067 0 0 1-2.357-1.975v-8.875a4.13 4.13 0 0 0 6.735 0c-.397.988.748 1.78-1.153 2.784a5.163 5.163 0 0 0 4.228-3.046c.367-.748 2.058-7.872-6.57-7.79a18.805 18.805 0 0 1-5.238-.524c-2.85-1.047-8.718-3.36-5.11-14.105-7.267 9.316-.465 14.966 2.244 15.827-4.677-.135-6.802-1.684-6.922-7.753-2.626 6.825 2.2 10.282 6.63 9.93-1.923 1.108-4.781.793-6.884-1.893a5.103 5.103 0 0 0 7.58 4.048v11.531a8.74 8.74 0 0 1-2.746 1.766l-1.833.883.082.21 1.9-.748a84.38 84.38 0 0 0 2.844.082c.554.523 1.056 1.1 1.497 1.721.259.827.587 1.63.98 2.402l.27-.105a5.56 5.56 0 0 1 .53-4.018c1.056.045 1.849.052 2.897.12l1.81.913.203-.135z"/>
        <circle cx="114.183" cy="19.501" r="1.759" fill="#FFF"/>
        <circle cx="114.22" cy="19.531" r="1" fill="#D31186"/>
        <path fill="#709F40" d="M165.786 6.173c.735-.189 1.487-.31 2.245-.359 2.566.172-.427 1.789.972 1.736 1.4-.052 1.31-1.04 2.305-.86.995.18.689 1.13 1.616 1.234 2.156.232 1.497-.673 5.291.405-3.966-.554-4.183.449-5.687.666-1.018.142-.569-.786-1.265-.906s-1.354 1.078-2.716 1.175c-1.362.097-.262-.95-.816-1.152-.553-.202-1.968.516-1.968.516l.023-2.455z"/>
        <path fill="#000" d="M165.367 6.173h1V13.2h-1z"/>
        <path fill="#D21385" d="M159.65 13.133V33.92h7.34v-7.46l5.598 7.498h2.619l-6.855-9.444 6.01-8.95h-2.582l-5.081 7.364v-9.795h-1.34v2.417h-1.362v-2.417h-1.616v2.417h-1.354v-2.417z"/>
        <path fill="#709F40" d="M157.128 16.507c-1.325.614-2.305 1.34-3.66 1.355-4.048.045-4.332-3.218-5.447-1.751-2.873 3.741-3.876 4.333-3.876 9.803-.689-3.413-.748-4.887-.105-6.473.335-.753.625-1.525.868-2.312 0-.15 0-.405-.172-.405a.27.27 0 0 0-.27.27c-1.399 4.632-1.878 2.14-.658 9.87 0 .052-.322-.868-.314-.816l-1.444-3.816-.374-.546s-.135-.442-.442-.105a13.47 13.47 0 0 0-1.497 2.297c-.374.681-1.81 1.58-.89 1.355a14.966 14.966 0 0 0 1.93-1.587c.318.491.57 1.022.749 1.58.067.47 1.414 5.32 1.414 7.288 0 .426 0 .666-.374.935-.872.188-1.758.308-2.649.36l.09.68c5.83-1.22 7.191-.067 10.94.112l-.225-.815c-2.035 0-2.102.075-2.94-.225a1.93 1.93 0 0 1-1.28-1.631c-.097-.621-.142-1.579-.18-1.946-.636-6.196 1.243-9.787 2.036-10.124.314-.135 2.596 1.137 3.39 1.085 1.698-.082 6.704-5.051 5.38-4.438z"/>
        <path fill="#D21385" d="M144.714 12.751a6.563 6.563 0 0 0-.644.965 9.084 9.084 0 0 0-.748 2.328c0 .598.426 1.578.68 1.653.263.103.554.103.816 0a2.784 2.784 0 0 0 1.497-1.983c.101-.744.124-1.496.067-2.245-.045-.254-.09-1.025-.097-1.092-.007-.067-.075-.232-.135-.172-.06.06-.471.883-.643 1.107-.172.225-.898.599-1.07.898-.172.3.277-.3.322-.516.044-.217.104-.853.127-1.048.022-.194-.127-.172-.127-.172l-.045.277zM49.29 16.036c0-1.025-1.19-.935-1.137 0-.337-1.107-1.332-.748-1.22-.09l.382 1.34-.075 10.588c-.304.52-.769.927-1.324 1.16-1.542 1.048-5.29.696-6.062 0-.913-.95 1.287-11.86 1.287-11.86l.524-1.34c-.09-.89-1.01-.748-1.22.105-.291-1.093-.995-.749-1.22-.068-.336-.838-1.017-.8-1.219-.037l.202.92s-1.257 7.543-1.609 11.973l-1.1-.105s.397-1.092-.628-1.376a1.018 1.018 0 0 0-1.13 1.578c-.261.456-.4.972-.404 1.497a3.143 3.143 0 0 0 .142 1.609c-.531.629-.659 1.564.112 1.953.89.449 1.497-.748 1.497-.98l1.728.344 1.497.614c4.01 1.272 10.514-2.425 10.514-2.425.613 3.128.613 6.682-.135 8.381-1.437 4.018-9.57 4.67-11.442 2.417a2.103 2.103 0 0 1-.202-2.17c.51-1.003 3.038-2.38 5.785-2.013a1.205 1.205 0 0 1 .98 1.497c-.284 1.676-2.245 2.297-2.814 1.93-.815-.501.98-1.496.98-1.496l-1.286-.614c-1.056.965-1.924 2.552 0 2.814 4.564.636 5.163-4.617 3.053-5.238-.92-.262-5.276-.532-7.483 2.11a3.038 3.038 0 0 0-.54 3.12c.472 1.422 2.732 2.327 5.164 2.522 3.66.292 8.688-1.033 9.533-6.144a19.86 19.86 0 0 0-.351-8.156c.074-.495.106-.996.097-1.497.037-1.122-.307-11.726-.307-11.726l.576-1.16c.158-.433-.538-1.174-1.145.023z"/>
        <path fill="#FFF" d="M36.442 31.997a1.362 1.362 0 0 0 1.497-1.017 1.4 1.4 0 0 0-1.302-1.497h-.045l-.15 2.514zM36.098 31.952a1.362 1.362 0 0 1-1.13-1.436 1.317 1.317 0 0 1 1.31-1.018l-.18 2.454z"/>
        <circle cx="34.624" cy="29.775" r="1" fill="#FFF"/>
        <circle cx="34.519" cy="31.324" r="1" fill="#FFF"/>
        <path fill="#709F40" d="M195.875 31.683a3.427 3.427 0 0 0-1.886.322c.157-.44.252-.897.284-1.362-.21-2.357-1.788-2.881-2.244-2.769a11.39 11.39 0 0 0-.397 3.218c0 .292.224 1.496.224 1.496-1.106.401-2.272.611-3.45.622-3.471-.315-4.654-3.18-4.87-4.977-.27-2.304.56-3.92 1.6-4.654 0 0 2.463 1.077 4.386.105.023.446.321.831.748.965.479.012.951-.113 1.362-.36a1.28 1.28 0 0 1-.36-1.93s.457 1.542 1.73 1.766c.417.075.846.033 1.242-.12 0 0 1.646-.92 0-1.444a4.572 4.572 0 0 0 0-2.297c-.696-3.412-4.348-4.774-4.565-4.827a11.18 11.18 0 0 0-5.306-.172c-2.663-1.69-7.355.24-8.41 2.245 1.122.8 2.783 1.534 2.641 1.714a8.59 8.59 0 0 0-1.975 5.65c0 6.136 3.741 10.191 10.274 10.244 1.964.039 3.905-.439 5.627-1.385.716.14 1.441.227 2.17.262a10.85 10.85 0 0 0 2.993-.479 2.372 2.372 0 0 0-1.818-1.833z"/>
        <path fill="#FFF" d="M185.07 17.398a4.056 4.056 0 0 0-.307 3.786 2.993 2.993 0 0 0 1.96 1.826.187.187 0 0 0 .195-.15.165.165 0 0 0-.128-.194 2.582 2.582 0 0 1-1.66-1.624 3.697 3.697 0 0 1 .284-3.472.195.195 0 0 0-.09-.232.24.24 0 0 0-.277.067l.022-.007z"/>
        <ellipse cx="190.495" cy="19.201" fill="#FFF" rx="1" ry="1"/>
        <path fill="#000" d="M136.505 33.83c-1.153-3.501-.853-6.27-1.826-9.615-.045-1.624-.464-2.94-.651-4.565v-.067c.628 0 1.265-.224 1.886-.307.097 0 .172-.262.172-.359 0-.097-.12-.36-.21-.36l-1.145.188c-.247.045-.531.067-.748.09-.127-1.018-.367-2.305-.449-3.323-.082-1.017-.292-1.496-.404-2.634a4.355 4.355 0 0 0 1.085-.202c.471 0 .935-.135 1.407-.187a.172.172 0 0 0 .127-.21.165.165 0 0 0-.18-.12 19.456 19.456 0 0 0-2.559-.747c-.995-.315-2.858-1.07-3.464-1.213l-.681-.18a.165.165 0 0 0 0-.09V9.75a.187.187 0 0 0-.038-.09l-.067-.074a.83.83 0 0 0-.599-.352.793.793 0 0 0-.935.42.39.39 0 0 0 0 .358c-.15.086-.311.152-.48.195-.055.029-.112.054-.171.075-.831.21-1.65.465-2.455.763a22.95 22.95 0 0 1-2.993.988c-.134 0-.247.09-.374.12a.172.172 0 0 0-.09.067.157.157 0 0 0-.06.09c-.018.09.038.18.128.202.666.029 1.331.096 1.99.202.122.015.245.015.367 0-.035.866-.13 1.728-.285 2.581-.104 1.04-.21 2.395-.299 3.412-.277 0-.68-.09-.958-.134-.277-.045-.666-.157-.973-.187-.09 0-.217.24-.217.329 0 .09.068.367.165.367.314 0 .748.224 1.025.217.299.079.605.13.913.15-.052.56-.187 1.63-.254 2.2-.247 2.027-.382 3.262-.636 5.29-.192.91-.312 1.833-.36 2.761-.064.363-.164.72-.299 1.063a7.992 7.992 0 0 1-.06.86c-.583 1.729-.486 2.477-.224 2.574.497-.06 1-.06 1.496 0 1.497.277 3.12-.06 4.55 0h.18a.165.165 0 0 0 .15-.09l.067-.18c.232-1.728.187-2.543.411-4.294a.165.165 0 0 0 0-.09h1.819c-.024.169-.024.34 0 .509a26.43 26.43 0 0 1 .471 3.846.165.165 0 0 0-.06.127c0 .09.172.165.262.165 2.148-.187 5.65 0 6.076-.09.427-.09.494-.187.457-.27z"/>
        <path fill="#FFF" d="M123.44 15.422c.097-.703.179-1.182.231-1.885v-.561c.161.008.321.028.48.06.189.01.379.01.568 0 1.242.09 2.312.12 3.652.12.224 0 .449 0 .673-.038 1.175-.045 2.245 0 3.427-.068h.083c0 .143.037.172.045.322.06.913.269 1.594.329 2.514.06.92.3 2.066.404 2.994a16.897 16.897 0 0 0-2.312.142c-1.025.1-2.056.117-3.083.052-.928 0-1.617 0-2.544-.067-.412 0-.749-.06-1.19-.097-.3 0-.457-.083-.749-.09h-.291c.067-1.04.127-2.313.276-3.398zM130.316 33.651a31.234 31.234 0 0 0-.501-4.153.995.995 0 0 1 0-.322.12.12 0 0 0 0-.082c0-.09 0-.135-.12-.135h-2.634c-.09 0-.134.12-.134.12a.367.367 0 0 1 0 .105 36.465 36.465 0 0 0-.577 4.49v.09h-.127c-1.274.08-2.552.062-3.824-.053a6.892 6.892 0 0 0-1.234-.045 5.695 5.695 0 0 1 .441-2.462 6.263 6.263 0 0 1 .292-1.699c.187-.598 0-1.144.15-1.78 0-.128.09-.232.112-.36.337-2.29.33-3.337.628-5.62.068-.523.225-1.593.262-2.11.37.001.739.041 1.1.12 1.295.082 2.402 0 3.697.075a21.05 21.05 0 0 0 3.973-.142h1.617c0 .037 0 0 0 0 .045.65.307 1.885.411 2.544.128.838.083 1.025.217 1.856.135.83.36 1.586.472 2.402.194 1.496.404 2.364.576 3.824.09.748.247 1.406.382 2.2.052.276.336.748.299 1.085-.038.336-3.577-.105-5.478.052z"/>
        <path fill="#000" d="M131.85 14.532a.165.165 0 0 0 .045-.105.157.157 0 0 0-.097-.142h-.06c-.808 0-1.616 0-2.417-.075a.524.524 0 0 0-.247.247c-.082.86.202 1.721 0 2.567a.18.18 0 0 0 .157.187.165.165 0 0 0 .12 0 9.339 9.339 0 0 0 2.342 0 .172.172 0 0 0 .172-.172.172.172 0 0 0 0-.165c-.157-.606 0-1.197-.112-1.833-.045-.255.225-.412.097-.509z"/>
        <path fill="#FFF" d="M129.53 16.717c.098-.68-.074-1.377 0-2.065.614.045 1.22.067 1.834.06-.03.67 0 1.34.09 2.005a8.688 8.688 0 0 1-1.923 0z"/>
        <path fill="#000" d="M126.26 24.649c0-.045.053-.337-.209-.322-.748 0-1.43 0-2.148-.075-.097 0-.164.187-.164.195-.083.24-.106.497-.068.748.051.552.033 1.107-.052 1.654v.097a.18.18 0 0 0 .112.165l.18.052c.621.045 1.496-.082 2.11 0 .06 0 .322-.18.3-.277a16.53 16.53 0 0 1-.06-2.237z"/>
        <path fill="#FFF" d="M124.12 26.692h-.074a6.99 6.99 0 0 0 .052-1.497 1.093 1.093 0 0 1 0-.434c.554 0 1.107.075 1.661.06-.02.634-.005 1.269.045 1.9-.449-.097-1.16.038-1.684-.03z"/>
        <path fill="#000" d="M74.261 34.242a21.79 21.79 0 0 0-2.746-.232c-1.001.019-2 .096-2.993.232l-5.089-8.508H60.86v2.656c-.04 1.316 0 2.633.12 3.944.06.352.554.584 1.055.748l1.87.749v.411c-1.75-.12-2.476-.232-4.235-.232-1.758 0-4.362.12-6.12.232v-.411l2.364-.996c.614-.262.441-.434.441-4.445V21.32c0-3.891.113-4.325-.59-4.587l-2.246-.846v-.411c1.751.12 4.363.232 6.121.232 1.871 0 3.21-.232 4.206-.232 3.45 0 7.438.8 7.438 5.178 0 2.454-.883 4.176-3.21 5.238l2.088 3.614c2.102 3.42 2.244 3.562 2.993 3.884l1.107.472v.381z"/>
        <path fill="#FFF" d="M68.073 18.281c.92-1.25-.262-1.542-.629-1.302-.366.24-.292 1.107-.292 1.107l-1.107.577.045-.51-.591-.845-1.34-.748-1.377-.112-1.571.658-.472 1.115-.067.479-1.175-.629s.075-.868-.292-1.107c-.366-.24-1.496-.142-.628 1.302-1.325.868-.696 1.497-.172 1.541.524.045.793-.576.793-.576l1.676.838V21.207l.39 1.062.329.128-1.826.92s-.113-1.137-.868-.696c-1.078.636.217 1.422.217 1.422-.846.636-.629 1.317 0 1.496.875.217.748-.568.935-1.107.53-.351 1.092-.654 1.676-.905l.038.366.21.659c.478.29 1.01.48 1.563.56.546 0 .748-.051.748-.051l.614-.322.352-.554v-.471c.41.146.812.313 1.204.501-.15.539.045 1.212.876.988.606-.157.808-.749.135-1.168 0 0 1.384-.808.097-1.347-.591-.247-.748.629-.748.629l-1.452-.576v-.434l.157-.142c0 .299.172.359.33.359.156 0 .388-.255.388-.576 0-.322.045-.644-.12-.644a.659.659 0 0 0-.201.037v-.246l.052-1.018 1.354-.793s.262.628.794.576c.531-.053 1.287-.86-.045-1.579z"/>
        <path fill="#000" d="M62.416 19.815l-.412.097-.232.344.18.607.471.09.457-.158.157-.509-.18-.389zM63.373 21.17l-.404.912.217.09.666-.022.15-.143-.397-.853zM64.047 23.078l-.015.426-.307-.045-.037-.352-.27.023-.785-.075-.023.793.502.225.808.022.539-.224.037-.838zM62.76 16.433l-.748.321c.006.19-.007.381-.038.57a8.77 8.77 0 0 1-.21.665v1.205l.487-.292.614-.165-.195-1.002.09-.704.21-.583-.21-.015zM64.294 16.62s.202.987.247 1.19c-.024.309-.09.613-.195.905l.644.322.569.411s-.053-1.212-.068-1.436a7.214 7.214 0 0 0-.157-.794l-1.04-.598z"/>
        <path fill="#000" d="M65.469 20.286l.037-.104-.097-.382-.651-.404-.868.052-.142.232-.838-.336-.756-.405-.225.135.958.539.793.314.023.636.68.621.592.015.374-.643.703.292.015-.27zM213.79 37.46a.748.748 0 1 1 1.496 0 .748.748 0 0 1-1.497 0h-.105a.883.883 0 1 0 .89-.883.89.89 0 0 0-.89.883h.105zm1.226.164a.397.397 0 0 1-.411.345.486.486 0 0 1-.494-.51.471.471 0 0 1 .486-.508.397.397 0 0 1 .42.337h-.128a.284.284 0 0 0-.292-.232.36.36 0 0 0-.359.404.374.374 0 0 0 .36.411.277.277 0 0 0 .284-.239l.134-.008zM216.161 37.46a.748.748 0 1 1 1.497 0 .748.748 0 0 1-1.497 0h-.112a.883.883 0 1 0 .89-.883.89.89 0 0 0-.89.883h.112zm.569-.202v.15h.18c.142 0 .351 0 .351-.18s-.134-.172-.262-.172h-.284v.18h-.12v-.285h.434a.456.456 0 0 1 .24.045.24.24 0 0 1 .112.217c0 .194-.135.27-.314.27l.299.456h-.142l-.285-.457h-.224v.502h-.12v-.749l.135.023z"/>
    </g>
</svg>
